<svg xmlns="http://www.w3.org/2000/svg" viewBox="0 0 44 44"><defs><style>.cls-1{fill:#ffa630;}.cls-2{fill:#fff;}</style></defs><title>01_informeanual [Recovered]</title><g id="Text"><circle class="cls-1" cx="22" cy="22" r="22"/><path class="cls-2" d="M22.05,36.45C12.85,36.45,7.68,31.2,7.68,26v-.59H19.33V26c0,1.4,1.2,2.17,2.79,2.17s2.75-1.12,2.75-2-.62-2.28-3-2.28H20.16v-4.2h1.71c2.38,0,3-1.29,3-2.27s-1.05-2-2.75-2-2.79.77-2.79,2.13v.6H7.68v-.6c0-5.18,5.17-10.43,14.37-10.43,8.75,0,14.26,4.1,14.26,8.51,0,2.8-1.38,4.93-5.36,6.19,4,1.26,5.36,3.4,5.36,6.2C36.31,32.36,30.8,36.45,22.05,36.45Z"/></g></svg>