<svg xmlns="http://www.w3.org/2000/svg" viewBox="0 0 324.8 93.04"><defs><style>.cls-1{fill:#ffb33d;}.cls-2{fill:#1a1b2f;}.cls-3{fill:#fff;}</style></defs><g id="Text"><polygon class="cls-1" points="184.8 49.3 33.84 49.3 39.79 0 190.06 0 184.8 49.3"/><path class="cls-1" d="M197.36.47h28l5.26,49.25H212.93V33.89H209.5V49.72H192.11Zm9.53,20.64,1.06,2.5,7.85-3.33-1.05-2.5Z"/><path class="cls-1" d="M231.24.47h15.89l6.3,19.83,1.07-.23-.86-4a54.39,54.39,0,0,1-1.52-10.27V.47h17.6V49.72H253.83l-6.31-19.83-1.06.22.85,4a53.59,53.59,0,0,1,1.53,10.28v5.32h-17.6Z"/><polygon class="cls-1" points="305.37 16.1 297.23 16.1 297.23 49.72 279.63 49.72 279.63 16.1 271.56 16.1 271.56 0.47 305.37 0.47 305.37 16.1"/><rect class="cls-1" x="307.21" y="0.47" width="17.6" height="49.25"/><path class="cls-2" d="M242.53,92.41a35,35,0,0,1-.63-6.48V76.11c0-1-.36-1.68-1.09-1.68h-1.15v18h-4.92V50.6h6.33c2.45,0,5.54,1.25,5.54,6.58V67.85a5.34,5.34,0,0,1-2.25,4.33,5.46,5.46,0,0,1,2.35,4.34v8.89a44.51,44.51,0,0,0,.68,7Zm-.73-35.12c0-1.2-.31-1.67-.89-1.67h-1.25V69.68h1.25c.58,0,.89-.48.89-1.68Z"/><path class="cls-2" d="M254.65,92.94c-3.39,0-5.9-2.93-5.9-7.16V50.6h4.65V86.14c0,.94.47,1.52,1.25,1.52s1.31-.58,1.31-1.52V50.6h4.44V85.78c0,4.23-2.35,7.16-5.75,7.16"/><path class="cls-2" d="M198.16,92.94c-3.4,0-6-2.93-6-7.16V57.24c0-4.24,2.61-7.16,6-7.16s6,2.92,6,7.16v9.93l-4.76-1.36V56.87c0-.94-.47-1.52-1.25-1.52s-1.25.58-1.25,1.52V86.14c0,.94.47,1.52,1.25,1.52s1.25-.58,1.25-1.52V77.2h4.76v8.58c0,4.23-2.61,7.16-6,7.16"/><path class="cls-2" d="M212.32,92.94c-3.39,0-6.22-2.93-6.22-7.16V57.24c0-4.24,2.83-7.16,6.22-7.16s6.22,2.92,6.22,7.16V85.78c0,4.23-2.82,7.16-6.22,7.16m1.26-36.07c0-.94-.48-1.52-1.26-1.52s-1.3.58-1.3,1.52V86.14c0,.94.47,1.52,1.3,1.52s1.26-.58,1.26-1.52Z"/><path class="cls-2" d="M228.42,92.41a35,35,0,0,1-.63-6.48V76.11c0-1-.36-1.68-1.1-1.68h-1.15v18h-4.91V50.6H227c2.46,0,5.55,1.25,5.55,6.58V67.85a5.37,5.37,0,0,1-2.25,4.34,5.43,5.43,0,0,1,2.35,4.33v8.89a44.51,44.51,0,0,0,.68,7Zm-.73-35.12c0-1.2-.32-1.67-.89-1.67h-1.26V69.68h1.26c.57,0,.89-.47.89-1.68Z"/><path class="cls-2" d="M268.87,75h-1.41V92.41h-4.91V50.6h6.32c2.46,0,5.54,1.25,5.54,6.58V68.42c0,5.28-3.08,6.54-5.54,6.54m.73-17.67c0-1.2-.31-1.67-.89-1.67h-1.25V69.94h1.25c.58,0,.89-.47.89-1.68Z"/><path class="cls-2" d="M281.67,93c-3.39,0-6-2.93-6-7.16V57.34c0-4.23,2.62-7.16,6-7.16s6,2.93,6,7.16v9.94l-4.75-1.37V57c0-.95-.47-1.52-1.26-1.52s-1.25.57-1.25,1.52V86.25c0,.94.47,1.51,1.25,1.51s1.26-.57,1.26-1.51V77.31h4.75v8.57c0,4.23-2.61,7.16-6,7.16"/><rect class="cls-2" x="289.93" y="50.7" width="4.91" height="41.82"/><path class="cls-2" d="M303.31,50.18c-3.4,0-6.22,2.93-6.22,7.16V85.88c0,4.23,2.82,7.16,6.22,7.16s6.22-2.93,6.22-7.16V57.34c0-4.23-2.82-7.16-6.22-7.16m1.25,36.07c0,.94-.47,1.51-1.25,1.51S302,87.19,302,86.25V57c0-.94.47-1.51,1.31-1.51s1.25.57,1.25,1.51Z"/><polygon class="cls-2" points="306.97 46.29 299.84 49.72 299.84 47.81 306.97 44.38 306.97 46.29"/><polygon class="cls-2" points="320.71 92.52 315.7 69.67 315.7 92.52 311.62 92.52 311.62 50.7 316.58 50.7 320.77 73.91 320.77 50.7 324.79 50.7 324.79 92.52 320.71 92.52"/><polygon class="cls-1" points="324.79 92.52 320.71 92.51 192.15 55.73 192.15 50.08 324.78 88.02 324.79 92.52"/><path class="cls-3" d="M64.23,20.51a4.81,4.81,0,0,0,1.85-.32,4,4,0,0,0,1.37-.88A5,5,0,0,0,68.39,18,10.7,10.7,0,0,0,69,16.19l.07-.29h2.06l-.07.29a14.55,14.55,0,0,1-.92,2.64,6.81,6.81,0,0,1-1.38,2,5.37,5.37,0,0,1-2,1.21,8.34,8.34,0,0,1-2.8.42,6.18,6.18,0,0,1-2.11-.34,4.4,4.4,0,0,1-1.54-1,4.2,4.2,0,0,1-.94-1.49,5.52,5.52,0,0,1-.32-1.92,10.67,10.67,0,0,1,.06-1.09,12.18,12.18,0,0,1,.19-1.22l.81-3.83a10,10,0,0,1,2.56-5.25,6.65,6.65,0,0,1,4.83-1.77,6,6,0,0,1,2.1.34,4.55,4.55,0,0,1,1.55,1,4,4,0,0,1,1,1.45,4.77,4.77,0,0,1,.34,1.83,6.83,6.83,0,0,1-.23,1.67l-.07.29H70.1l.07-.29a5.2,5.2,0,0,0,.16-.83,5.48,5.48,0,0,0,0-.7,2.84,2.84,0,0,0-.75-2.07,3.24,3.24,0,0,0-2.42-.77,4.05,4.05,0,0,0-1.79.39A4.62,4.62,0,0,0,64,7.9a6.72,6.72,0,0,0-1.1,1.67,10.23,10.23,0,0,0-.7,2.15l-.76,3.54c-.08.37-.14.73-.18,1a7.78,7.78,0,0,0-.06.94,3.55,3.55,0,0,0,.73,2.45A3,3,0,0,0,64.23,20.51Z"/><path class="cls-3" d="M81.86,9.56a5.12,5.12,0,0,1,2,.37,4.66,4.66,0,0,1,1.57,1,4.78,4.78,0,0,1,1,1.58,5.17,5.17,0,0,1,.38,2,8.55,8.55,0,0,1-.5,2.93A7.69,7.69,0,0,1,84.85,20a7.35,7.35,0,0,1-2.39,1.76,7.47,7.47,0,0,1-3.2.66,5.19,5.19,0,0,1-1.94-.36,4.91,4.91,0,0,1-1.59-1,4.64,4.64,0,0,1-1.06-1.56,5.07,5.07,0,0,1-.4-2.05,8.23,8.23,0,0,1,.61-3.23,7.34,7.34,0,0,1,1.64-2.5,7.62,7.62,0,0,1,2.42-1.6A7.39,7.39,0,0,1,81.86,9.56Zm-2.18,11a4.44,4.44,0,0,0,2.08-.5,5.47,5.47,0,0,0,1.65-1.33,6.21,6.21,0,0,0,1.07-1.88,6.45,6.45,0,0,0,.38-2.18,3.34,3.34,0,0,0-.9-2.4,3.29,3.29,0,0,0-2.51-.94,4.37,4.37,0,0,0-2,.46,5.21,5.21,0,0,0-1.64,1.28A6.4,6.4,0,0,0,76.71,15a6.14,6.14,0,0,0-.42,2.27,3.36,3.36,0,0,0,.88,2.41A3.3,3.3,0,0,0,79.68,20.61Z"/><path class="cls-3" d="M101.12,13c0-.08,0-.16,0-.22s0-.14,0-.22a1.2,1.2,0,0,0-.27-.81,1,1,0,0,0-.84-.32,1.35,1.35,0,0,0-1.11.49,3.23,3.23,0,0,0-.61,1.37l-1.89,8.85H94.54L96.48,13a3,3,0,0,0,0-.52,1.2,1.2,0,0,0-.24-.75,1,1,0,0,0-.84-.3,1.32,1.32,0,0,0-1.18.56,3.73,3.73,0,0,0-.57,1.3l-1.89,8.85H89.92L92.5,9.9h1.91l-.22,1h.3a2,2,0,0,1,.83-1,2.47,2.47,0,0,1,1.26-.33,2,2,0,0,1,1.24.37,1.66,1.66,0,0,1,.6,1h.29a2.6,2.6,0,0,1,.89-1,2.33,2.33,0,0,1,1.32-.36,2.09,2.09,0,0,1,1.67.65,2.49,2.49,0,0,1,.57,1.71,4.4,4.4,0,0,1,0,.48,2.66,2.66,0,0,1-.07.45l-1.57,7.32a.26.26,0,0,0,.05.29.3.3,0,0,0,.24.1.39.39,0,0,0,.27-.1l1-.76,1,1.45L103,22a2.53,2.53,0,0,1-.68.32,2.86,2.86,0,0,1-.82.12,2.44,2.44,0,0,1-.71-.1,1.85,1.85,0,0,1-.63-.31,1.48,1.48,0,0,1-.45-.54,1.69,1.69,0,0,1-.17-.82,2.18,2.18,0,0,1,0-.25,2,2,0,0,1,0-.24Z"/><path class="cls-3" d="M112.12,12a.62.62,0,0,0-.06-.43.41.41,0,0,0-.38-.18.81.81,0,0,0-.37.09l-2.87,2-1-1.45,2.89-2A2.92,2.92,0,0,1,112,9.56a2.23,2.23,0,0,1,1.45.49,1.84,1.84,0,0,1,.61,1.52,3,3,0,0,1-.1.79L112.15,20a.5.5,0,0,0,.06.46.42.42,0,0,0,.35.18.64.64,0,0,0,.37-.13l2.83-1.91,1,1.45-2.82,1.91a3,3,0,0,1-1.65.52,2.23,2.23,0,0,1-1.45-.49,1.84,1.84,0,0,1-.61-1.53,3.46,3.46,0,0,1,.09-.78Zm.4-5.77a1.71,1.71,0,0,1,1.71-1.72,1.68,1.68,0,0,1,1.22.5,1.64,1.64,0,0,1,.5,1.22,1.62,1.62,0,0,1-.5,1.21,1.65,1.65,0,0,1-1.22.51,1.72,1.72,0,0,1-1.71-1.72Z"/><path class="cls-3" d="M129,11.28a4.57,4.57,0,0,0-1,.12,3.68,3.68,0,0,0-1,.37,2.12,2.12,0,0,0-.7.63,1.49,1.49,0,0,0-.27.89,1.28,1.28,0,0,0,.7,1.18,6.29,6.29,0,0,0,2.42.52,4.89,4.89,0,0,1,2.74.88,2.66,2.66,0,0,1,1,2.24,3.82,3.82,0,0,1-1.62,3.2,5.54,5.54,0,0,1-1.8.84,9.23,9.23,0,0,1-2.3.28A6.07,6.07,0,0,1,125,22.1a4,4,0,0,1-1.43-.89,3.28,3.28,0,0,1-.82-1.25,4,4,0,0,1-.26-1.44v-.25a2.11,2.11,0,0,1,0-.26l1.92-.25a2.42,2.42,0,0,0,0,.25v.15a3.11,3.11,0,0,0,.16,1,2.08,2.08,0,0,0,.53.79,2.74,2.74,0,0,0,1,.52,4.34,4.34,0,0,0,1.45.2,5.29,5.29,0,0,0,1.16-.13,3.81,3.81,0,0,0,1.1-.42,2.92,2.92,0,0,0,.81-.71,1.74,1.74,0,0,0,.32-1,1.27,1.27,0,0,0-.78-1.29,7.64,7.64,0,0,0-2.29-.45,5.2,5.2,0,0,1-2.74-.84,2.56,2.56,0,0,1-1-2.23,3.58,3.58,0,0,1,.37-1.6,3.73,3.73,0,0,1,1-1.26,5,5,0,0,1,1.62-.83,7.25,7.25,0,0,1,2.1-.29,5.47,5.47,0,0,1,1.95.31,4,4,0,0,1,1.35.79,3.32,3.32,0,0,1,.79,1.12,3.4,3.4,0,0,1,.25,1.29v.27l-1.89.27v-.1a.19.19,0,0,1,0-.08s0-.06,0-.09a1.86,1.86,0,0,0-.7-1.5A3.21,3.21,0,0,0,129,11.28Z"/><path class="cls-3" d="M143.41,12a.53.53,0,0,0-.06-.43.41.41,0,0,0-.38-.18.81.81,0,0,0-.37.09l-2.87,2-1-1.45,2.9-2a2.86,2.86,0,0,1,1.64-.51,2.23,2.23,0,0,1,1.45.49,1.84,1.84,0,0,1,.61,1.52,3.48,3.48,0,0,1-.09.79L143.44,20a.5.5,0,0,0,.06.46.43.43,0,0,0,.36.18.64.64,0,0,0,.36-.13l2.83-1.91L148,20l-2.82,1.91a3,3,0,0,1-1.65.52,2.23,2.23,0,0,1-1.45-.49,1.84,1.84,0,0,1-.61-1.53,3,3,0,0,1,.1-.78Zm.4-5.77a1.64,1.64,0,0,1,.5-1.22,1.68,1.68,0,0,1,1.22-.5,1.72,1.72,0,0,1,1.72,1.72,1.63,1.63,0,0,1-.51,1.21,1.63,1.63,0,0,1-1.21.51,1.65,1.65,0,0,1-1.22-.51A1.62,1.62,0,0,1,143.81,6.27Z"/><path class="cls-3" d="M160.09,9.56a5.15,5.15,0,0,1,2,.37,4.66,4.66,0,0,1,1.57,1,4.78,4.78,0,0,1,1,1.58,5.36,5.36,0,0,1,.38,2,8.8,8.8,0,0,1-.5,2.93A7.54,7.54,0,0,1,163.07,20a7.31,7.31,0,0,1-2.38,1.76,7.47,7.47,0,0,1-3.2.66,5.19,5.19,0,0,1-1.94-.36,4.59,4.59,0,0,1-2.66-2.55,5.24,5.24,0,0,1-.39-2.05,8.41,8.41,0,0,1,.6-3.23,7.37,7.37,0,0,1,1.65-2.5,7.51,7.51,0,0,1,2.42-1.6A7.35,7.35,0,0,1,160.09,9.56Zm-2.19,11a4.48,4.48,0,0,0,2.09-.5,5.47,5.47,0,0,0,1.65-1.33,6.21,6.21,0,0,0,1.07-1.88,6.45,6.45,0,0,0,.38-2.18,3.17,3.17,0,0,0-3.42-3.34,4.44,4.44,0,0,0-2,.46,5.29,5.29,0,0,0-1.63,1.28A6.42,6.42,0,0,0,154.93,15a6.14,6.14,0,0,0-.41,2.27,3.36,3.36,0,0,0,.88,2.41A3.28,3.28,0,0,0,157.9,20.61Zm5.78-15.42v.14l-2.53,2.76h-2l2.24-2.9Z"/><path class="cls-3" d="M177.8,14.77c0-.23.08-.43.1-.58s0-.32,0-.48a2.14,2.14,0,0,0-.7-1.76,3,3,0,0,0-1.95-.57,3.48,3.48,0,0,0-2.73,1.19,6.6,6.6,0,0,0-1.45,3l-1.37,6.49H167.8L170.41,9.9h1.91L172,11.67h.3a3.79,3.79,0,0,1,1.61-1.61,4.64,4.64,0,0,1,2.1-.5,4.23,4.23,0,0,1,1.5.26,3.65,3.65,0,0,1,1.24.75,3.35,3.35,0,0,1,.83,1.2,4,4,0,0,1,.31,1.64,6.2,6.2,0,0,1-.15,1.31l-1.18,5.45a.28.28,0,0,0,.05.29.33.33,0,0,0,.25.1.43.43,0,0,0,.27-.1l1-.76,1,1.45-1,.71a2.62,2.62,0,0,1-1.64.57,2.84,2.84,0,0,1-.72-.09,1.54,1.54,0,0,1-1-.84,1.86,1.86,0,0,1-.17-.86,4.24,4.24,0,0,1,.09-.79Z"/><path class="cls-3" d="M46.84,25.32h9.7v1.92H48.48l-1.2,5.7h7.49v1.91H46.86l-1.2,5.75h7.79v1.92H43.18Z"/><path class="cls-3" d="M65.9,45.51a2.44,2.44,0,0,1-.81,1.38,2.23,2.23,0,0,1-1.48.54H58.14V45.66h5.15a.78.78,0,0,0,.81-.74L66.78,32.4a.48.48,0,0,0-.07-.41.38.38,0,0,0-.3-.13.57.57,0,0,0-.29.09l-2.87,2-1-1.45,2.9-2A2.69,2.69,0,0,1,66.71,30a1.95,1.95,0,0,1,2,2,3.37,3.37,0,0,1-.08.64ZM67,26.7A1.72,1.72,0,0,1,68.72,25a1.71,1.71,0,0,1,1.72,1.72,1.72,1.72,0,0,1-1.72,1.72A1.74,1.74,0,0,1,67,26.7Z"/><path class="cls-3" d="M76.53,37c0,.14,0,.28-.07.45a4.18,4.18,0,0,0,0,.51,2.9,2.9,0,0,0,3.29,3.1,5.51,5.51,0,0,0,1.53-.2,4,4,0,0,0,1.17-.55,4.37,4.37,0,0,0,.85-.81,6.5,6.5,0,0,0,.6-1l1.57.88a6.78,6.78,0,0,1-.86,1.34,5.17,5.17,0,0,1-1.23,1.09,6,6,0,0,1-1.64.74,7.78,7.78,0,0,1-2.14.27,6,6,0,0,1-2-.33,4.44,4.44,0,0,1-1.58-1,4.26,4.26,0,0,1-1-1.54A5.33,5.33,0,0,1,74.57,38a9.08,9.08,0,0,1,.49-3,7.79,7.79,0,0,1,1.42-2.54,7.32,7.32,0,0,1,2.31-1.79A7,7,0,0,1,81.91,30a5.6,5.6,0,0,1,2.14.38,4.27,4.27,0,0,1,1.5,1,4.54,4.54,0,0,1,.88,1.48,4.87,4.87,0,0,1,.3,1.7,5.4,5.4,0,0,1-.15,1.28L86.31,37Zm5.14-5.2a4.94,4.94,0,0,0-1.61.25,5.14,5.14,0,0,0-1.37.73A5.1,5.1,0,0,0,77,35.25h7.81a4,4,0,0,0,.07-.74,2.38,2.38,0,0,0-.9-2A3.7,3.7,0,0,0,81.67,31.81Z"/><path class="cls-3" d="M102,38.34a7.07,7.07,0,0,1-.88,1.76,6,6,0,0,1-1.41,1.43,6.71,6.71,0,0,1-2,1,8.13,8.13,0,0,1-2.51.36,5.86,5.86,0,0,1-2.1-.36,4.19,4.19,0,0,1-1.61-1,4.57,4.57,0,0,1-1-1.59,5.76,5.76,0,0,1-.36-2.09,8.26,8.26,0,0,1,.55-3,7.61,7.61,0,0,1,1.56-2.49,7.12,7.12,0,0,1,2.43-1.69A7.93,7.93,0,0,1,97.78,30a6.24,6.24,0,0,1,2,.32,4.35,4.35,0,0,1,1.54.9,3.86,3.86,0,0,1,1,1.37,4.38,4.38,0,0,1,.34,1.76v.11s0,.12,0,.26l-2,.29a1.22,1.22,0,0,0,0-.22v-.17a3.26,3.26,0,0,0-.19-1.1,2.24,2.24,0,0,0-.59-.88,3,3,0,0,0-1-.6,4.41,4.41,0,0,0-1.49-.22,4.87,4.87,0,0,0-2.12.46,5.41,5.41,0,0,0-1.69,1.27,5.72,5.72,0,0,0-1.13,1.85,6.14,6.14,0,0,0-.41,2.21A3.32,3.32,0,0,0,93,40.19a3.66,3.66,0,0,0,2.56.85,5,5,0,0,0,1.74-.28A4.62,4.62,0,0,0,98.64,40a4.16,4.16,0,0,0,.93-1,4.9,4.9,0,0,0,.57-1.23Z"/><path class="cls-3" d="M114,40.45h-.3a4.67,4.67,0,0,1-1.69,1.8,4.91,4.91,0,0,1-2.51.61,3.74,3.74,0,0,1-2.62-.92,3.51,3.51,0,0,1-1-2.74,6.28,6.28,0,0,1,0-.75,5.09,5.09,0,0,1,.15-.85l1.63-7.27h1.91l-1.57,7a6.76,6.76,0,0,0-.17,1.42c0,1.51.81,2.26,2.43,2.26a3.92,3.92,0,0,0,2.89-1.19,6.35,6.35,0,0,0,1.63-3.18l1.42-6.34h1.92L116,40.45a.38.38,0,0,0,0,.32.34.34,0,0,0,.27.12.62.62,0,0,0,.35-.12l1-.76,1,1.42-1.22.94a2.18,2.18,0,0,1-.73.37,3.2,3.2,0,0,1-.87.12,2.39,2.39,0,0,1-.71-.1,1.6,1.6,0,0,1-.62-.32,1.67,1.67,0,0,1-.43-.55,1.9,1.9,0,0,1-.14-1,1.9,1.9,0,0,1,0-.25Z"/><path class="cls-3" d="M122.81,30.33H127L128.16,25h1.92L129,30.33h4.32V32.1h-4.72l-1.74,8.28a.53.53,0,0,0,.06.47.45.45,0,0,0,.36.17.69.69,0,0,0,.37-.13l3.26-2.21,1,1.45-3.27,2.21a2.9,2.9,0,0,1-1.62.52,2.19,2.19,0,0,1-1.48-.52,1.89,1.89,0,0,1-.61-1.54c0-.12,0-.24,0-.36s0-.25.08-.38l1.67-8h-3.83Z"/><path class="cls-3" d="M143.41,32.47a.53.53,0,0,0-.06-.43.41.41,0,0,0-.38-.18.81.81,0,0,0-.37.09l-2.87,2-1-1.45,2.9-2a2.8,2.8,0,0,1,1.64-.52,2.23,2.23,0,0,1,1.45.49,1.84,1.84,0,0,1,.61,1.52,3.48,3.48,0,0,1-.09.79l-1.82,7.59a.53.53,0,0,0,.06.47.45.45,0,0,0,.36.17.64.64,0,0,0,.36-.13L147.05,39l1,1.45-2.82,1.91a3,3,0,0,1-1.65.52,2.23,2.23,0,0,1-1.45-.49,1.84,1.84,0,0,1-.61-1.52,3,3,0,0,1,.1-.79Zm.4-5.77a1.64,1.64,0,0,1,.5-1.22,1.68,1.68,0,0,1,1.22-.5,1.72,1.72,0,0,1,1.72,1.72,1.74,1.74,0,0,1-1.72,1.72,1.65,1.65,0,0,1-1.22-.51A1.62,1.62,0,0,1,143.81,26.7Z"/><path class="cls-3" d="M158.22,41.63h.3l5.7-11.3,1.79.91-5.89,11.28h-3.74l-.93-10.27a.39.39,0,0,0-.42-.39.52.52,0,0,0-.44.22l-1.2,1.52L152,32.49,153.19,31a2.57,2.57,0,0,1,.91-.74,2.44,2.44,0,0,1,1.05-.24,2.3,2.3,0,0,1,1.47.52,2.09,2.09,0,0,1,.74,1.54Z"/><path class="cls-3" d="M176.18,40.6a4.17,4.17,0,0,1-1.81,1.78,5.19,5.19,0,0,1-2.2.48,4.16,4.16,0,0,1-1.76-.36,3.66,3.66,0,0,1-1.33-1,4.66,4.66,0,0,1-.84-1.54,6.42,6.42,0,0,1-.29-2,10.37,10.37,0,0,1,.44-3,8.06,8.06,0,0,1,1.29-2.55,6.72,6.72,0,0,1,2.1-1.79,6,6,0,0,1,2.9-.67,3.81,3.81,0,0,1,2.14.58A2.65,2.65,0,0,1,178,32.25h.3l.39-1.92h1.91l-2.16,10.12a.38.38,0,0,0,.05.33.33.33,0,0,0,.27.11.62.62,0,0,0,.35-.12l.88-.64,1,1.45-1.1.84a2.53,2.53,0,0,1-.68.32,2.86,2.86,0,0,1-.82.12,2.39,2.39,0,0,1-.71-.1,1.85,1.85,0,0,1-.63-.31,1.41,1.41,0,0,1-.45-.54,1.69,1.69,0,0,1-.18-.82,1.94,1.94,0,0,1,0-.24,1.9,1.9,0,0,1,0-.25Zm-3.42.44a4,4,0,0,0,1.86-.45,5,5,0,0,0,1.52-1.24,5.86,5.86,0,0,0,1-1.86,6.93,6.93,0,0,0,.37-2.32,4,4,0,0,0-.69-2.44,2.48,2.48,0,0,0-2.14-.92,4,4,0,0,0-2,.49,4.78,4.78,0,0,0-1.49,1.31,5.94,5.94,0,0,0-.92,1.91,8.28,8.28,0,0,0-.31,2.23,3.68,3.68,0,0,0,.72,2.46A2.6,2.6,0,0,0,172.76,41Z"/><path class="cls-1" d="M.35,27.38,3.79,11.19H6.9L4,24.7h7.15v3H.35Z"/><path class="cls-1" d="M25.69,24.86l.23.17,1.13-.8,1.49,2.21-1.39.94a3.45,3.45,0,0,1-1.93.62,2.71,2.71,0,0,1-1.6-.5,2.16,2.16,0,0,1-.9-1.39H22.3a3.84,3.84,0,0,1-.5.74,2.63,2.63,0,0,1-.69.59,3.72,3.72,0,0,1-1,.4,4.58,4.58,0,0,1-1.3.16,4,4,0,0,1-1.7-.37,4.06,4.06,0,0,1-1.35-1,4.73,4.73,0,0,1-.91-1.52,5.36,5.36,0,0,1-.33-1.91A10,10,0,0,1,15,20.25a7.41,7.41,0,0,1,1.23-2.39,5.65,5.65,0,0,1,4.59-2.2,3.54,3.54,0,0,1,2.05.52,2.49,2.49,0,0,1,1,1.36h.42L24.6,16h3Zm-5.7.31a3.16,3.16,0,0,0,2.6-1.25,4.16,4.16,0,0,0,.67-1.33A5.32,5.32,0,0,0,23.5,21a2.53,2.53,0,0,0-.64-1.8,2.19,2.19,0,0,0-1.69-.7,3.2,3.2,0,0,0-1.51.35,3.36,3.36,0,0,0-1.11.9,4.08,4.08,0,0,0-.68,1.33,5.38,5.38,0,0,0-.24,1.62,2.83,2.83,0,0,0,.58,1.74A2.11,2.11,0,0,0,20,25.17Z"/></g></svg>