<svg xmlns="http://www.w3.org/2000/svg" viewBox="0 0 97.38 136.29"><defs><style>.cls-1{fill:none;stroke:#000;stroke-linecap:round;stroke-miterlimit:10;stroke-width:4px;}</style></defs><title>01_informeanual [Recovered]</title><g id="Text"><path d="M73,65.5a32.8,32.8,0,0,0,4.92-16.84V29.2c0-10.1-6.1-29.2-29.2-29.2s-29.2,19.1-29.2,29.2V48.66A32.8,32.8,0,0,0,24.41,65.5C18,70,0,84.63,0,107.08v24.35a4.87,4.87,0,0,0,4.87,4.86H92.51a4.87,4.87,0,0,0,4.87-4.86V107.08C97.36,84.63,79.43,70,73,65.5ZM29.22,29.2c0-.8.22-19.47,19.47-19.47,18.75,0,19.45,17.5,19.47,19.47V48.66c0,.79-.22,19.47-19.47,19.47-18.75,0-19.45-17.5-19.47-19.47Zm58.42,97.36H9.73V107.09c0-19.35,18.06-32.18,21.4-34.39,4.3,3.1,10,5.16,17.56,5.16S62,75.8,66.25,72.7c3.35,2.2,21.37,14.93,21.39,34.39Z"/><path class="cls-1" d="M58.17,53.29a12,12,0,0,0-17,0"/></g></svg>