<svg xmlns="http://www.w3.org/2000/svg" viewBox="0 0 463.51 328.56"><defs><style>.cls-1{fill:#1a1b2f;}.cls-2{fill:#ed4462;}</style></defs><title>01_informeanual [Recovered]</title><g id="Text"><polygon class="cls-1" points="254.23 0 292.55 37.94 352.92 30.07 365.94 74.65 427.61 86.73 412.75 129.11 463.51 158.74 423.71 190.54 453.51 231.85 396.65 246.77 399.59 291.58 336.94 286.66 312.43 326.1 256.39 302.31 209.28 328.56 170.96 290.62 110.59 298.49 97.57 253.91 35.9 241.84 50.76 199.45 0 169.82 39.8 138.03 10 96.71 66.86 81.8 63.92 36.98 126.57 41.91 151.09 2.46 207.12 26.25 254.23 0"/><path class="cls-2" d="M188.79,191,257,197.66l-4.58,47.07L97.11,229.63c4.9-50.39,60.37-71.41,93.54-82,11-3.46,12.63-8.23,13.08-12.92.52-5.27-4.71-10.31-13.89-11.21-8.59-.83-15.46,2.84-16.2,10.45l-.32,3.32-62.89-6.11.32-3.32c2.8-28.71,33.57-55.29,83.18-50.47,44.34,4.31,75,29.38,71.89,61.61C261.62,182.15,189.61,182.64,188.79,191Z"/><path class="cls-2" d="M289.19,182.46c-10.15-1-17.87-10.8-16.43-25.65l4.41-45.31c1.44-14.84,10.91-23,21.06-22,10.55,1,18.07,10.83,16.63,25.67l-4.41,45.31C309,175.32,299.74,183.49,289.19,182.46Zm2.25,66.07-14.65-1.42,81.6-149.79,14.85,1.44Zm7.91-136c.25-2.54-.91-4.82-2.86-5-1.57-.16-3.34,1.84-3.59,4.38l-4.63,47.65c-.25,2.54,1.11,4.84,2.67,5,1.95.19,3.53-1.83,3.78-4.37Zm52.06,143.85c-10.16-1-17.69-10.78-16.24-25.63l4.4-45.31c1.45-14.84,10.72-23,20.88-22,10.54,1,18.07,10.83,16.62,25.67l-4.4,45.31C371.22,249.19,362,257.36,351.41,256.33Zm10.35-70c.25-2.54-1.11-4.84-3.06-5-1.56-.15-3.33,1.84-3.58,4.38l-4.64,47.66c-.24,2.54,1.11,4.83,2.67,5,2,.19,3.73-1.81,4-4.35Z"/></g></svg>