<svg xmlns="http://www.w3.org/2000/svg" viewBox="0 0 269.66 233"><defs><style>.cls-1{fill:#ffa630;}.cls-2{fill:#1a1b2f;}.cls-3{fill:#fff;}</style></defs><title>01_informeanual [Recovered]</title><g id="Text"><polygon class="cls-1" points="67.26 116.5 0 233 134.52 233 67.26 116.5"/><polygon class="cls-1" points="202.4 116.5 135.14 233 269.66 233 202.4 116.5"/><polygon class="cls-1" points="134.06 0 66.79 116.5 201.32 116.5 134.06 0"/><path class="cls-2" d="M46.78,177.43H46v9.83H43.6v-23.2h3.18c1.23,0,2.79.55,2.79,3.51V174C49.57,176.88,48,177.43,46.78,177.43Zm.48-10c0-.66-.15-.93-.45-.93H46V175h.81c.3,0,.45-.26.45-.93Z"/><path class="cls-2" d="M53.38,187.55c-1.56,0-2.85-1.33-2.85-3.54V173.34c0-2.15,1.29-3.51,2.85-3.51s2.88,1.36,2.88,3.51v6H52.87v4.85c0,.37.24.69.51.69s.48-.32.48-.69V181h2.4v3C56.26,186.22,55,187.55,53.38,187.55Zm.48-14.33c0-.37-.18-.69-.48-.69s-.51.32-.51.69v4h1Z"/><path class="cls-2" d="M59.65,174.56v12.7H57.28V170.15h2.25l.12.93a2.23,2.23,0,0,1,2-1.25v3.07C60.28,172.9,59.65,173.19,59.65,174.56Z"/><path class="cls-2" d="M65.17,187.55c-1.74,0-3-1.53-3-3.74V182.1h2.43v2c0,.38.21.84.54.84s.54-.46.54-.84c0-1.68.15-1.8-1.38-4.61-.78-1.37-2.22-3.8-2.22-5.54,0-2.58,1.38-4.15,2.88-4.15s3,1.57,3,3.74v1.94H65.53v-2.23c0-.38-.21-.75-.54-.75s-.54.37-.54.75c0,1.71,1,3.08,1.92,4.84a10.22,10.22,0,0,1,1.68,5.31C68.05,186.28,66.49,187.55,65.17,187.55Z"/><path class="cls-2" d="M71.73,187.55c-1.62,0-2.88-1.33-2.88-3.54V173.34c0-2.15,1.26-3.51,2.88-3.51s2.91,1.36,2.91,3.51V184C74.64,186.22,73.35,187.55,71.73,187.55Zm.51-14.33c0-.37-.21-.69-.51-.69s-.48.32-.48.69v11c0,.37.18.69.48.69s.51-.32.51-.69Z"/><path class="cls-2" d="M79.08,187.26v-14c0-.37-.24-.69-.48-.69s-.51.32-.51.69v14h-2.4V170.15H78l.09.75a1.83,1.83,0,0,1,1.5-1.07c1,0,1.86,1.16,1.86,2.61v14.82Z"/><path class="cls-2" d="M86.4,187.26l-.09-.95a1.81,1.81,0,0,1-1.65,1.24c-1.53,0-2.28-1.24-2.28-3.54V181.9c0-2.93,1.59-4.7,3.18-6.1v-2.58c0-.37-.12-.69-.39-.69s-.39.32-.39.69v1.86H82.62v-1.74c0-2.15,1-3.51,2.67-3.51s2.64,1.36,2.64,3.51v10.38a19.63,19.63,0,0,0,.42,3.54Zm-.84-8.55a5,5,0,0,0-1,2.95V184c0,.47.21.84.54.84s.48-.37.48-.84Z"/><path class="cls-2" d="M91.89,187.55c-1.74,0-3-1.53-3-3.74V182.1h2.43v2c0,.38.21.84.54.84s.54-.46.54-.84c0-1.68.15-1.8-1.38-4.61-.78-1.37-2.22-3.8-2.22-5.54,0-2.58,1.38-4.15,2.88-4.15s3,1.57,3,3.74v1.94H92.25v-2.23c0-.38-.21-.75-.54-.75s-.54.37-.54.75c0,1.71,1,3.08,1.92,4.84a10.22,10.22,0,0,1,1.68,5.31C94.77,186.28,93.21,187.55,91.89,187.55Z"/><path class="cls-2" d="M40,215.55c-1.56,0-2.85-1.33-2.85-3.54V201.34c0-2.15,1.29-3.51,2.85-3.51s2.88,1.36,2.88,3.51v3.07h-2.4v-3.19c0-.37-.18-.69-.48-.69s-.51.32-.51.69v11c0,.37.27.69.51.69s.48-.32.48-.69V209h2.4v3C42.84,214.22,41.58,215.55,40,215.55Z"/><path class="cls-2" d="M47.61,215.26l-.09-.95a1.81,1.81,0,0,1-1.65,1.24c-1.53,0-2.28-1.24-2.28-3.54V209.9c0-2.93,1.59-4.7,3.18-6.1v-2.58c0-.37-.12-.69-.39-.69s-.39.32-.39.69v1.86H43.83v-1.74c0-2.15,1.05-3.51,2.67-3.51s2.64,1.36,2.64,3.51v10.38a19.63,19.63,0,0,0,.42,3.54Zm-.84-8.55a5,5,0,0,0-1,2.95V212c0,.47.21.84.54.84s.48-.37.48-.84Z"/><path class="cls-2" d="M54.11,215.55a1.77,1.77,0,0,1-1.5-1v6.87h-2.4v-23.2h2.31l.09.75a1.77,1.77,0,0,1,1.5-1c1,0,1.9,1.16,1.9,2.58V213C56,214.45,55.16,215.55,54.11,215.55Zm-.51-14.3c0-.37-.21-.69-.48-.69s-.51.32-.51.69v10.94c0,.37.21.69.51.69s.48-.32.48-.69Z"/><path class="cls-2" d="M61,215.26l-.09-.95a1.81,1.81,0,0,1-1.65,1.24c-1.53,0-2.28-1.24-2.28-3.54V209.9c0-2.93,1.59-4.7,3.18-6.1v-2.58c0-.37-.12-.69-.39-.69s-.39.32-.39.69v1.86H57.2v-1.74c0-2.15,1-3.51,2.67-3.51s2.64,1.36,2.64,3.51v10.38a19.63,19.63,0,0,0,.42,3.54Zm-.84-8.55a5,5,0,0,0-1,2.95V212c0,.47.21.84.54.84s.48-.37.48-.84Z"/><path class="cls-2" d="M66.38,215.55c-1.56,0-2.85-1.33-2.85-3.54V201.34c0-2.15,1.29-3.51,2.85-3.51s2.88,1.36,2.88,3.51v3.07h-2.4v-3.19c0-.37-.18-.69-.48-.69s-.51.32-.51.69v11c0,.37.27.69.51.69s.48-.32.48-.69V209h2.4v3C69.26,214.22,68,215.55,66.38,215.55Z"/><path class="cls-2" d="M70.13,196.52v-2.67H72.5v2.67Zm0,18.74V198.15H72.5v17.11Z"/><path class="cls-2" d="M76.76,200.73v11c0,.35.24.7.54.7h.6v2.84H76.67c-1.29,0-2.25-1.36-2.25-3.19V200.73H73.34v-2.58h1.08v-2.38h2.34v2.38H78v2.58Z"/><path class="cls-2" d="M82.64,215.26l-.09-.95a1.81,1.81,0,0,1-1.65,1.24c-1.53,0-2.28-1.24-2.28-3.54V209.9c0-2.93,1.59-4.7,3.18-6.1v-2.58c0-.37-.12-.69-.39-.69s-.39.32-.39.69v1.86H78.86v-1.74c0-2.15,1-3.51,2.67-3.51s2.64,1.36,2.64,3.51v10.38a19.63,19.63,0,0,0,.42,3.54Zm-.84-8.55a5,5,0,0,0-1,2.95V212c0,.47.21.84.54.84s.48-.37.48-.84Z"/><path class="cls-2" d="M88.69,215.26l-.12-.75a1.72,1.72,0,0,1-1.47,1c-1.08,0-1.91-1.16-1.91-2.58V200.44c0-1.45.83-2.61,1.91-2.61a1.75,1.75,0,0,1,1.47,1.07v-6.84H91v23.2Zm-.12-14c0-.37-.18-.69-.47-.69s-.52.32-.52.69v11c0,.37.24.69.52.69s.47-.32.47-.69Z"/><path class="cls-2" d="M96,215.26l-.09-.95a1.81,1.81,0,0,1-1.65,1.24c-1.53,0-2.28-1.24-2.28-3.54V209.9c0-2.93,1.59-4.7,3.18-6.1v-2.58c0-.37-.12-.69-.39-.69s-.39.32-.39.69v1.86H92.23v-1.74c0-2.15,1-3.51,2.67-3.51s2.64,1.36,2.64,3.51v10.38a19.63,19.63,0,0,0,.42,3.54Zm-.84-8.55a5,5,0,0,0-1,2.95V212c0,.47.21.84.54.84s.48-.37.48-.84Z"/><path class="cls-2" d="M101.5,215.55c-1.74,0-3-1.53-3-3.74V210.1h2.43v2c0,.38.21.84.54.84s.54-.46.54-.84c0-1.68.15-1.8-1.38-4.61-.78-1.37-2.22-3.8-2.22-5.54,0-2.58,1.38-4.15,2.88-4.15s3,1.57,3,3.74v1.94h-2.37v-2.23c0-.38-.21-.75-.54-.75s-.54.37-.54.75c0,1.71,1,3.08,1.92,4.84a10.22,10.22,0,0,1,1.68,5.31C104.38,214.28,102.82,215.55,101.5,215.55Z"/><path class="cls-2" d="M120.53,74.26a21.94,21.94,0,0,1-.33-3.59v-5.6c0-.53-.18-.93-.54-.93h-.75V74.26h-2.4V51.06h3.18c1.23,0,2.79.55,2.79,3.51v6.06A3.08,3.08,0,0,1,121.34,63a3.11,3.11,0,0,1,1.2,2.4v4.94a27.92,27.92,0,0,0,.36,3.88Zm-.36-19.87c0-.66-.15-.93-.45-.93h-.81v8.33h.81c.3,0,.45-.26.45-.93Z"/><path class="cls-2" d="M126.47,74.55c-1.56,0-2.85-1.33-2.85-3.54V60.34c0-2.15,1.29-3.51,2.85-3.51s2.88,1.36,2.88,3.51v6H126v4.85c0,.37.24.69.51.69s.48-.32.48-.69V68h2.4v3C129.35,73.22,128.06,74.55,126.47,74.55ZM127,60.22c0-.37-.18-.69-.48-.69s-.51.32-.51.69v4h1Z"/><path class="cls-2" d="M136,58.69a.5.5,0,0,1-.39-.12,5.28,5.28,0,0,1,.45,2.2v3.95c0,2.15-1.14,3.6-2.61,3.74h0c-.54-.12-.87.55-.87,1.07s.15,1.16.69,1.16c1.86,0,3,1,3,3.2v3.19c0,2.58-1.2,3.51-3.06,3.51-1.68,0-3-.9-3-3.51V74.23a2.52,2.52,0,0,1,.84-1.94,2.19,2.19,0,0,1-1-2,2.4,2.4,0,0,1,1.68-2.47c-1.05-.43-1.38-2-1.38-3.42V60.34c0-2.21,1.29-3.51,2.88-3.51.24,0,.69.06.84.06.9,0,1.07-.53,1.07-1.28h1.81a7.68,7.68,0,0,1,.09,1.07C137,58.05,136.55,58.69,136,58.69ZM134,74a.78.78,0,0,0-.72-.87c-.48,0-.66.44-.66.87v3.08c0,.4.24.92.66.92s.72-.52.72-.92Zm-.3-13.81c0-.37-.24-.69-.51-.69s-.48.32-.48.69V65c0,.38.18.69.48.69s.51-.31.51-.69Z"/><path class="cls-2" d="M137.23,74.26V51.06h2.4v23.2Z"/><path class="cls-2" d="M144.67,74.26l-.09-1a1.81,1.81,0,0,1-1.65,1.24c-1.53,0-2.28-1.24-2.28-3.54V68.9c0-2.93,1.59-4.7,3.18-6.1V60.22c0-.37-.12-.69-.39-.69s-.39.32-.39.69v1.86h-2.16V60.34c0-2.15,1.05-3.51,2.67-3.51s2.64,1.36,2.64,3.51V70.72a19.63,19.63,0,0,0,.42,3.54Zm-.84-8.55a5,5,0,0,0-1,3V71c0,.47.21.84.54.84s.48-.37.48-.84Z"/><path class="cls-2" d="M150.16,74.55c-1.74,0-3-1.53-3-3.74V69.1h2.43v2c0,.38.21.84.54.84s.54-.46.54-.84c0-1.68.15-1.8-1.38-4.61-.78-1.37-2.22-3.8-2.22-5.54,0-2.58,1.38-4.15,2.88-4.15s3,1.57,3,3.74v1.94h-2.37V60.28c0-.38-.21-.75-.54-.75s-.54.37-.54.75c0,1.71,1,3.08,1.92,4.84A10.22,10.22,0,0,1,153,70.43C153,73.28,151.48,74.55,150.16,74.55Z"/><path class="cls-2" d="M120.63,102.55c-1.56,0-2.85-1.33-2.85-3.54V88.34c0-2.15,1.29-3.51,2.85-3.51s2.88,1.36,2.88,3.51v3.07h-2.4V88.22c0-.37-.18-.69-.48-.69s-.51.32-.51.69v11c0,.37.27.69.51.69s.48-.32.48-.69V96h2.4v3C123.51,101.22,122.25,102.55,120.63,102.55Z"/><path class="cls-2" d="M124.38,102.26V79.06h2.4v23.2Z"/><path class="cls-2" d="M131.82,102.26l-.09-1a1.81,1.81,0,0,1-1.65,1.24c-1.53,0-2.28-1.24-2.28-3.54V96.9c0-2.93,1.59-4.7,3.18-6.1V88.22c0-.37-.12-.69-.39-.69s-.39.32-.39.69v1.86H128V88.34c0-2.15,1.05-3.51,2.67-3.51s2.64,1.36,2.64,3.51V98.72a19.63,19.63,0,0,0,.42,3.54ZM131,93.71a5,5,0,0,0-1,3V99c0,.47.21.84.54.84s.48-.37.48-.84Z"/><path class="cls-2" d="M136.8,89.56v12.7h-2.37V85.15h2.25l.12.93a2.23,2.23,0,0,1,1.95-1.25V87.9C137.43,87.9,136.8,88.19,136.8,89.56Z"/><path class="cls-2" d="M143.34,102.26l-.09-1a1.81,1.81,0,0,1-1.65,1.24c-1.53,0-2.28-1.24-2.28-3.54V96.9c0-2.93,1.59-4.7,3.18-6.1V88.22c0-.37-.12-.69-.39-.69s-.39.32-.39.69v1.86h-2.16V88.34c0-2.15,1.05-3.51,2.67-3.51s2.64,1.36,2.64,3.51V98.72a19.63,19.63,0,0,0,.42,3.54Zm-.84-8.55a5,5,0,0,0-1,3V99c0,.47.21.84.54.84s.48-.37.48-.84Z"/><path class="cls-2" d="M148.83,102.55c-1.74,0-3-1.53-3-3.74V97.1h2.43v2c0,.38.21.84.54.84s.54-.46.54-.84c0-1.68.15-1.8-1.38-4.61-.78-1.37-2.22-3.8-2.22-5.54,0-2.58,1.38-4.15,2.88-4.15s3,1.57,3,3.74v1.94h-2.37V88.28c0-.38-.21-.75-.54-.75s-.55.37-.55.75c0,1.71,1,3.08,1.92,4.84a10.13,10.13,0,0,1,1.68,5.31C151.7,101.28,150.15,102.55,148.83,102.55Z"/><path class="cls-2" d="M183.11,187.26a21.94,21.94,0,0,1-.33-3.59v-5.6c0-.53-.18-.93-.54-.93h-.75v10.12h-2.4v-23.2h3.18c1.23,0,2.79.55,2.79,3.51v6.06a3.08,3.08,0,0,1-1.14,2.41,3.11,3.11,0,0,1,1.2,2.4v4.94a27.92,27.92,0,0,0,.36,3.88Zm-.36-19.87c0-.66-.15-.93-.45-.93h-.81v8.33h.81c.3,0,.45-.26.45-.93Z"/><path class="cls-2" d="M189,187.55c-1.56,0-2.85-1.33-2.85-3.54V173.34c0-2.15,1.29-3.51,2.85-3.51s2.88,1.36,2.88,3.51v6h-3.39v4.85c0,.37.24.69.51.69s.48-.32.48-.69V181h2.4v3C191.92,186.22,190.63,187.55,189,187.55Zm.48-14.33c0-.37-.18-.69-.48-.69s-.51.32-.51.69v4h1Z"/><path class="cls-2" d="M195.73,187.55c-1.56,0-2.85-1.33-2.85-3.54V173.34c0-2.15,1.29-3.51,2.85-3.51s2.88,1.36,2.88,3.51v3.07h-2.4v-3.19c0-.37-.18-.69-.48-.69s-.51.32-.51.69v11c0,.37.27.69.51.69s.48-.32.48-.69V181h2.4v3C198.61,186.22,197.35,187.55,195.73,187.55Z"/><path class="cls-2" d="M202.93,187.26l-.12-.75a1.73,1.73,0,0,1-1.53,1c-1,0-1.86-1.16-1.86-2.58V170.15h2.37v14a.63.63,0,0,0,.54.69c.24,0,.48-.32.48-.69v-14h2.37v17.11Z"/><path class="cls-2" d="M208.66,174.56v12.7h-2.37V170.15h2.25l.12.93a2.23,2.23,0,0,1,2-1.25v3.07C209.29,172.9,208.66,173.19,208.66,174.56Z"/><path class="cls-2" d="M214.18,187.55c-1.74,0-3-1.53-3-3.74V182.1h2.43v2c0,.38.21.84.54.84s.54-.46.54-.84c0-1.68.15-1.8-1.38-4.61-.78-1.37-2.22-3.8-2.22-5.54,0-2.58,1.38-4.15,2.88-4.15s3,1.57,3,3.74v1.94h-2.37v-2.23c0-.38-.21-.75-.54-.75s-.54.37-.54.75c0,1.71,1,3.08,1.92,4.84a10.22,10.22,0,0,1,1.68,5.31C217.06,186.28,215.5,187.55,214.18,187.55Z"/><path class="cls-2" d="M220.75,187.55c-1.62,0-2.89-1.33-2.89-3.54V173.34c0-2.15,1.27-3.51,2.89-3.51s2.91,1.36,2.91,3.51V184C223.66,186.22,222.36,187.55,220.75,187.55Zm.51-14.33c0-.37-.21-.69-.51-.69s-.48.32-.48.69v11c0,.37.17.69.48.69s.51-.32.51-.69Z"/><path class="cls-2" d="M227.58,187.55c-1.74,0-3-1.53-3-3.74V182.1H227v2c0,.38.21.84.54.84s.54-.46.54-.84c0-1.68.15-1.8-1.38-4.61-.78-1.37-2.22-3.8-2.22-5.54,0-2.58,1.38-4.15,2.88-4.15s3,1.57,3,3.74v1.94h-2.37v-2.23c0-.38-.21-.75-.54-.75s-.54.37-.54.75c0,1.71,1,3.08,1.92,4.84a10.22,10.22,0,0,1,1.68,5.31C230.46,186.28,228.9,187.55,227.58,187.55Z"/><path class="cls-2" d="M178,215.55c-1.74,0-3-1.53-3-3.74V210.1h2.43v2c0,.38.21.84.54.84s.54-.46.54-.84c0-1.68.15-1.8-1.38-4.61-.78-1.37-2.22-3.8-2.22-5.54,0-2.58,1.38-4.15,2.88-4.15s3,1.57,3,3.74v1.94h-2.37v-2.23c0-.38-.21-.75-.54-.75s-.54.37-.54.75c0,1.71,1,3.08,1.92,4.84a10.22,10.22,0,0,1,1.68,5.31C180.83,214.28,179.27,215.55,178,215.55Z"/><path class="cls-2" d="M185.15,215.26l-.13-.75a1.71,1.71,0,0,1-1.52,1c-1,0-1.86-1.16-1.86-2.58V198.15H184v14a.63.63,0,0,0,.54.69c.23,0,.47-.32.47-.69v-14h2.37v17.11Z"/><path class="cls-2" d="M191.47,200.73v14.53h-2.4V200.73h-.75v-2.58h.75v-3.4c0-1.77,1-2.69,2.31-2.69h1.08v2.84H192c-.3,0-.48.35-.48.7v2.55h1v2.58Z"/><path class="cls-2" d="M196.24,215.55c-1.56,0-2.85-1.33-2.85-3.54V201.34c0-2.15,1.29-3.51,2.85-3.51s2.88,1.36,2.88,3.51v3.07h-2.4v-3.19c0-.37-.18-.69-.48-.69s-.51.32-.51.69v11c0,.37.27.69.51.69s.48-.32.48-.69V209h2.4v3C199.12,214.22,197.86,215.55,196.24,215.55Z"/><path class="cls-2" d="M200,196.52v-2.67h2.37v2.67Zm0,18.74V198.15h2.37v17.11Z"/><path class="cls-2" d="M206.23,215.55c-1.56,0-2.85-1.33-2.85-3.54V201.34c0-2.15,1.29-3.51,2.85-3.51s2.88,1.36,2.88,3.51v6h-3.39v4.85c0,.37.24.69.51.69s.48-.32.48-.69V209h2.4v3C209.11,214.22,207.82,215.55,206.23,215.55Zm.48-14.33c0-.37-.18-.69-.48-.69s-.51.32-.51.69v4h1Z"/><path class="cls-2" d="M213.52,215.26v-14c0-.37-.24-.69-.48-.69s-.51.32-.51.69v14h-2.4V198.15h2.31l.09.75a1.83,1.83,0,0,1,1.5-1.07c1,0,1.86,1.16,1.86,2.61v14.82Z"/><path class="cls-2" d="M220.09,200.73v11c0,.35.24.7.53.7h.61v2.84H220c-1.3,0-2.25-1.36-2.25-3.19V200.73h-1.08v-2.58h1.08v-2.38h2.34v2.38h1.22v2.58Z"/><path class="cls-2" d="M224.82,215.55c-1.56,0-2.85-1.33-2.85-3.54V201.34c0-2.15,1.29-3.51,2.85-3.51s2.88,1.36,2.88,3.51v6h-3.39v4.85c0,.37.24.69.51.69s.48-.32.48-.69V209h2.4v3C227.7,214.22,226.41,215.55,224.82,215.55Zm.48-14.33c0-.37-.18-.69-.48-.69s-.51.32-.51.69v4h1Z"/><path class="cls-2" d="M231.6,215.55c-1.74,0-3-1.53-3-3.74V210.1H231v2c0,.38.21.84.54.84s.54-.46.54-.84c0-1.68.15-1.8-1.38-4.61-.78-1.37-2.22-3.8-2.22-5.54,0-2.58,1.38-4.15,2.88-4.15s3,1.57,3,3.74v1.94H232v-2.23c0-.38-.21-.75-.54-.75s-.54.37-.54.75c0,1.71,1,3.08,1.92,4.84a10.22,10.22,0,0,1,1.68,5.31C234.48,214.28,232.92,215.55,231.6,215.55Z"/><path class="cls-3" d="M94.26,146.23a3.23,3.23,0,0,0,1.21-.21,2.67,2.67,0,0,0,.88-.57,3.15,3.15,0,0,0,.62-.89,6.22,6.22,0,0,0,.41-1.15l.05-.19h1.34l0,.19a9.1,9.1,0,0,1-.6,1.72,4.35,4.35,0,0,1-.89,1.28,3.61,3.61,0,0,1-1.31.8,5.49,5.49,0,0,1-1.82.27,3.91,3.91,0,0,1-1.38-.23,2.84,2.84,0,0,1-1-.63,2.63,2.63,0,0,1-.61-1,3.51,3.51,0,0,1-.21-1.24,6,6,0,0,1,0-.72c0-.25.07-.51.12-.79l.53-2.49A6.48,6.48,0,0,1,93.26,137a4.31,4.31,0,0,1,3.14-1.15,3.9,3.9,0,0,1,1.37.22,2.92,2.92,0,0,1,1,.62,2.61,2.61,0,0,1,.62.94,3.16,3.16,0,0,1,.22,1.2,4.25,4.25,0,0,1-.15,1.08l0,.2H98.08l0-.2a3.21,3.21,0,0,0,.1-.53,3.67,3.67,0,0,0,0-.46,1.85,1.85,0,0,0-.49-1.35,2.11,2.11,0,0,0-1.58-.5,2.63,2.63,0,0,0-1.16.25,3.11,3.11,0,0,0-1,.71,4.77,4.77,0,0,0-.71,1.09,6.39,6.39,0,0,0-.46,1.4l-.49,2.31a6.53,6.53,0,0,0-.12.68,4.45,4.45,0,0,0,0,.61,2.3,2.3,0,0,0,.48,1.6A2,2,0,0,0,94.26,146.23Z"/><path class="cls-3" d="M106.79,144.47h-4.5l-1.36,2.78H99.41l5.55-11.2h2.56l.8,11.2H107Zm-3.89-1.25h3.81l-.42-6.57h-.19Z"/><path class="cls-3" d="M112.39,142.65l-1,4.6h-1.34l2.38-11.2h3.65a4,4,0,0,1,1.29.2,2.83,2.83,0,0,1,1,.56,2.31,2.31,0,0,1,.6.84,2.58,2.58,0,0,1,.22,1.08,4.19,4.19,0,0,1-.29,1.55,3.54,3.54,0,0,1-.84,1.25,4,4,0,0,1-1.33.82,4.92,4.92,0,0,1-1.76.3Zm.27-1.25h2.4a3.46,3.46,0,0,0,1.09-.17,2.45,2.45,0,0,0,.87-.48,2.21,2.21,0,0,0,.57-.77,2.37,2.37,0,0,0,.2-1,1.56,1.56,0,0,0-.48-1.26,2.14,2.14,0,0,0-1.4-.41h-2.39Z"/><path class="cls-3" d="M126.37,144.47h-4.5l-1.35,2.78H119l5.56-11.2h2.56l.8,11.2h-1.36Zm-3.89-1.25h3.81l-.42-6.57h-.19Z"/><path class="cls-3" d="M133.43,146.23a3.17,3.17,0,0,0,1.2-.21,2.62,2.62,0,0,0,.89-.57,3.37,3.37,0,0,0,.62-.89,7,7,0,0,0,.41-1.15l0-.19h1.34l-.05.19a9.1,9.1,0,0,1-.6,1.72,4.2,4.2,0,0,1-.9,1.28,3.57,3.57,0,0,1-1.3.8,5.49,5.49,0,0,1-1.82.27,3.83,3.83,0,0,1-1.38-.23,2.84,2.84,0,0,1-1-.63,2.65,2.65,0,0,1-.62-1,3.75,3.75,0,0,1-.2-1.24,6,6,0,0,1,0-.72,6.07,6.07,0,0,1,.12-.79l.52-2.49a6.48,6.48,0,0,1,1.68-3.43,4.31,4.31,0,0,1,3.14-1.15,3.9,3.9,0,0,1,1.37.22,2.92,2.92,0,0,1,1,.62,2.61,2.61,0,0,1,.62.94,3.37,3.37,0,0,1,.22,1.2,4.25,4.25,0,0,1-.15,1.08l0,.2h-1.35l.05-.2a3.21,3.21,0,0,0,.1-.53,3.67,3.67,0,0,0,0-.46,1.85,1.85,0,0,0-.49-1.35,2.11,2.11,0,0,0-1.58-.5,2.7,2.7,0,0,0-1.17.25,3.2,3.2,0,0,0-.94.71,4.46,4.46,0,0,0-.71,1.09,6.39,6.39,0,0,0-.46,1.4l-.49,2.31a4.65,4.65,0,0,0-.12.68,4.45,4.45,0,0,0,0,.61,2.3,2.3,0,0,0,.48,1.6A2,2,0,0,0,133.43,146.23Z"/><path class="cls-3" d="M141.6,136.05h6.92v1.25h-2.79L143.89,146h2.79v1.24h-6.92V146h2.79l1.84-8.71H141.6Z"/><path class="cls-3" d="M150.88,136.05h3.89a3.82,3.82,0,0,1,2.56.76,2.76,2.76,0,0,1,.86,2.2,4.54,4.54,0,0,1,0,.63,4.31,4.31,0,0,1-.12.67l-.6,2.78a9.39,9.39,0,0,1-.6,1.93,3.75,3.75,0,0,1-.89,1.29,3.27,3.27,0,0,1-1.34.72,7.17,7.17,0,0,1-1.93.22H149V146h1.06l1.84-8.71h-1.06Zm1.78,10a5.1,5.1,0,0,0,1.3-.15,2.43,2.43,0,0,0,1-.49,2.8,2.8,0,0,0,.7-.92,5.63,5.63,0,0,0,.46-1.45l.56-2.69q.09-.42.12-.69a4.84,4.84,0,0,0,0-.53,1.54,1.54,0,0,0-.58-1.4,3.11,3.11,0,0,0-1.74-.39h-1.22L151.44,146Z"/><path class="cls-3" d="M165.54,144.47H161l-1.36,2.78h-1.52l5.55-11.2h2.56l.81,11.2h-1.37Zm-3.89-1.25h3.81l-.42-6.57h-.19Z"/><path class="cls-3" d="M170.47,136.05h3.88a3.8,3.8,0,0,1,2.56.76,2.77,2.77,0,0,1,.87,2.2,4.54,4.54,0,0,1,0,.63c0,.21-.07.44-.12.67l-.61,2.78a10.09,10.09,0,0,1-.59,1.93,3.91,3.91,0,0,1-.9,1.29,3.29,3.29,0,0,1-1.33.72,7.17,7.17,0,0,1-1.93.22h-3.63V146h1.05l1.84-8.71h-1.05Zm1.77,10a5.19,5.19,0,0,0,1.31-.15,2.39,2.39,0,0,0,1-.49,2.67,2.67,0,0,0,.7-.92,5.61,5.61,0,0,0,.47-1.45l.56-2.69c.05-.28.09-.51.11-.69a4.84,4.84,0,0,0,0-.53,1.56,1.56,0,0,0-.57-1.4,3.17,3.17,0,0,0-1.75-.39h-1.21L171,146Z"/></g></svg>