<svg xmlns="http://www.w3.org/2000/svg" viewBox="0 0 97.38 136.29"><defs><style>.cls-1{fill:#ed4462;}</style></defs><title>01_informeanual [Recovered]</title><g id="Text"><path d="M73,65.5a32.8,32.8,0,0,0,4.92-16.84V29.2c0-10.1-6.1-29.2-29.2-29.2s-29.2,19.1-29.2,29.2V48.66A32.8,32.8,0,0,0,24.41,65.5C18,70,0,84.63,0,107.08v24.35a4.87,4.87,0,0,0,4.87,4.86H92.51a4.87,4.87,0,0,0,4.87-4.86V107.08C97.36,84.63,79.43,70,73,65.5ZM29.22,29.2c0-.8.22-19.47,19.47-19.47,18.75,0,19.45,17.5,19.47,19.47V48.66c0,.79-.22,19.47-19.47,19.47-18.75,0-19.45-17.5-19.47-19.47Zm58.42,97.36H9.73V107.09c0-19.35,18.06-32.18,21.4-34.39,4.3,3.1,10,5.16,17.56,5.16S62,75.8,66.25,72.7c3.35,2.2,21.37,14.93,21.39,34.39ZM62,27.44c0,6.89-3.88,8.83-6.72,10.25-2.45,1.23-3.8,1.91-3.8,5.54V48.5a2.64,2.64,0,0,1-5.27,0V43.23c0-6.89,3.89-8.83,6.72-10.25,2.46-1.23,3.81-1.9,3.81-5.54,0-7.43-6.59-7.88-7.91-7.9-7.42,0-7.87,6.59-7.88,7.91a2.64,2.64,0,0,1-5.27,0c0-4.55,2.75-13.16,13.16-13.16C53.34,14.28,62,17,62,27.44ZM54.06,59a5.27,5.27,0,1,1-5.27-5.27A5.27,5.27,0,0,1,54.06,59Z"/><polygon class="cls-1" points="97.57 60.29 94.02 60.29 -2.12 18.2 -2.12 13.27 97.56 56.37 97.57 60.29"/></g></svg>